<svg width="36" height="36" viewBox="0 0 36 36" fill="none" xmlns="http://www.w3.org/2000/svg">
<path d="M14.0542 5.84636C10.9222 6.91916 8.25102 9.26636 6.76782 12.2256C6.24942 13.248 5.87502 14.3352 5.65182 15.4584C5.08302 18.252 5.47902 21.2256 6.76782 23.7744C7.60302 25.4376 8.80542 26.9136 10.2598 28.0656C11.635 29.16 13.2334 29.9664 14.9326 30.42C17.071 30.996 19.3534 30.9816 21.5134 30.492C23.4646 30.0456 25.3078 29.1096 26.7766 27.756C28.3318 26.3232 29.4406 24.444 30.031 22.4208C30.6718 20.2104 30.7582 17.856 30.355 15.5952C26.323 15.5952 22.291 15.5952 18.2518 15.5952C18.2518 17.2656 18.2518 18.9432 18.2518 20.6136C20.5846 20.6136 22.9246 20.6136 25.2574 20.6136C24.9838 22.2192 24.0334 23.6808 22.6798 24.588C21.8302 25.1568 20.8582 25.5312 19.8502 25.704C18.835 25.8768 17.791 25.8984 16.783 25.6968C15.7534 25.4952 14.7742 25.0632 13.9174 24.4584C12.5494 23.5008 11.5054 22.0896 10.9726 20.5128C10.4254 18.9072 10.4182 17.1144 10.9726 15.5088C11.3542 14.3784 11.995 13.3272 12.8374 12.4776C13.8742 11.412 15.2206 10.656 16.675 10.3464C17.9206 10.08 19.231 10.1304 20.4478 10.4976C21.4846 10.8144 22.435 11.376 23.2198 12.1248C24.0118 11.34 24.7966 10.548 25.5886 9.76316C25.999 9.33836 26.4382 8.93516 26.8414 8.49596C25.6462 7.38716 24.235 6.49436 22.7014 5.93276C19.951 4.90316 16.8334 4.88156 14.0542 5.84636Z" fill="white"/>
<path d="M14.0546 5.84646C16.8338 4.88166 19.9514 4.90326 22.7162 5.92566C24.2498 6.48726 25.6538 7.38006 26.8562 8.48886C26.453 8.92086 26.021 9.33126 25.6034 9.75606C24.8114 10.5409 24.0266 11.3329 23.2346 12.1177C22.4498 11.3689 21.4994 10.8001 20.4626 10.4905C19.2458 10.1233 17.9354 10.0729 16.6898 10.3393C15.2354 10.6489 13.889 11.4121 12.8522 12.4705C12.0098 13.3201 11.369 14.3713 10.9874 15.5017C9.58339 14.4145 8.17939 13.3201 6.77539 12.2329C8.25139 9.26646 10.9226 6.91926 14.0546 5.84646Z" fill="#E94435"/>
<path d="M5.65182 15.4584C5.87502 14.3352 6.25662 13.248 6.76782 12.2256C8.17182 13.3128 9.57582 14.4072 10.9798 15.4944C10.4254 17.1 10.4326 18.8928 10.9798 20.4984C9.57582 21.5856 8.17182 22.68 6.76782 23.7672C5.47902 21.2328 5.08302 18.252 5.65182 15.4584Z" fill="#F8BB15"/>
<path d="M18.259 15.5881C22.291 15.5881 26.323 15.5881 30.3622 15.5881C30.7654 17.8489 30.679 20.2033 30.0382 22.4137C29.4478 24.4369 28.339 26.3233 26.7838 27.7489C25.423 26.6905 24.055 25.6321 22.7014 24.5737C24.055 23.6737 25.0054 22.2049 25.279 20.5993C22.9462 20.5993 20.6062 20.5993 18.2734 20.5993C18.2518 18.9361 18.259 17.2657 18.259 15.5881Z" fill="#547DBE"/>
<path d="M6.76758 23.7744C8.17158 22.6872 9.57558 21.5928 10.9796 20.5056C11.5124 22.0896 12.5564 23.4936 13.9244 24.4512C14.7812 25.056 15.7604 25.4808 16.79 25.6896C17.798 25.8912 18.8492 25.8696 19.8572 25.6968C20.8652 25.524 21.8372 25.1496 22.6868 24.5808C24.0476 25.6392 25.4156 26.6976 26.7692 27.756C25.3004 29.1168 23.4572 30.0456 21.506 30.492C19.3532 30.9816 17.0708 30.996 14.9252 30.42C13.226 29.9664 11.6276 29.16 10.2524 28.0656C8.80518 26.9064 7.60278 25.4304 6.76758 23.7744Z" fill="#34A751"/>
</svg>
