<svg width="40" height="48" viewBox="0 0 40 48" fill="none" xmlns="http://www.w3.org/2000/svg">
<path fill-rule="evenodd" clip-rule="evenodd" d="M12 6C12 4.4087 12.6321 2.88258 13.7574 1.75736C14.8826 0.632141 16.4087 0 18 0H22C23.5913 0 25.1174 0.632141 26.2426 1.75736C27.3679 2.88258 28 4.4087 28 6V10C28 11.5913 27.3679 13.1174 26.2426 14.2426C25.1174 15.3679 23.5913 16 22 16V20H32C32.5304 20 33.0391 20.2107 33.4142 20.5858C33.7893 20.9609 34 21.4696 34 22V26C34 26.5304 33.7893 27.0391 33.4142 27.4142C33.0391 27.7893 32.5304 28 32 28C31.4696 28 30.9609 27.7893 30.5858 27.4142C30.2107 27.0391 30 26.5304 30 26V24H10V26C10 26.5304 9.78929 27.0391 9.41421 27.4142C9.03914 27.7893 8.53043 28 8 28C7.46957 28 6.96086 27.7893 6.58579 27.4142C6.21071 27.0391 6 26.5304 6 26V22C6 21.4696 6.21071 20.9609 6.58579 20.5858C6.96086 20.2107 7.46957 20 8 20H18V16C16.4087 16 14.8826 15.3679 13.7574 14.2426C12.6321 13.1174 12 11.5913 12 10V6ZM0 38C0 36.4087 0.632141 34.8826 1.75736 33.7574C2.88258 32.6321 4.4087 32 6 32H10C11.5913 32 13.1174 32.6321 14.2426 33.7574C15.3679 34.8826 16 36.4087 16 38V42C16 43.5913 15.3679 45.1174 14.2426 46.2426C13.1174 47.3679 11.5913 48 10 48H6C4.4087 48 2.88258 47.3679 1.75736 46.2426C0.632141 45.1174 0 43.5913 0 42V38ZM24 38C24 36.4087 24.6321 34.8826 25.7574 33.7574C26.8826 32.6321 28.4087 32 30 32H34C35.5913 32 37.1174 32.6321 38.2426 33.7574C39.3679 34.8826 40 36.4087 40 38V42C40 43.5913 39.3679 45.1174 38.2426 46.2426C37.1174 47.3679 35.5913 48 34 48H30C28.4087 48 26.8826 47.3679 25.7574 46.2426C24.6321 45.1174 24 43.5913 24 42V38Z" fill="white"/>
</svg>
